<?xml version="1.0" encoding="UTF-8"?>
<!DOCTYPE svg PUBLIC "-//W3C//DTD SVG 1.1//EN" "http://www.w3.org/Graphics/SVG/1.1/DTD/svg11.dtd">
<svg xmlns="http://www.w3.org/2000/svg" version="1.1" width="1516px" height="205px" style="shape-rendering:geometricPrecision; text-rendering:geometricPrecision; image-rendering:optimizeQuality; fill-rule:evenodd; clip-rule:evenodd" xmlns:xlink="http://www.w3.org/1999/xlink">
<g><path style="opacity:1" fill="#fefefe" d="M -0.5,-0.5 C 504.833,-0.5 1010.17,-0.5 1515.5,-0.5C 1515.5,67.8333 1515.5,136.167 1515.5,204.5C 1010.17,204.5 504.833,204.5 -0.5,204.5C -0.5,136.167 -0.5,67.8333 -0.5,-0.5 Z"/></g>
<g><path style="opacity:1" fill="#dadce0" d="M 97.5,1.5 C 538.5,1.33333 979.5,1.5 1420.5,2C 1470.3,10.1292 1500.13,38.9626 1510,88.5C 1513.46,133.418 1495.96,167.251 1457.5,190C 1445.76,195.708 1433.42,199.375 1420.5,201C 979.5,201.667 538.5,201.667 97.5,201C 55.2138,193.445 27.3805,169.279 14,128.5C 3.5246,78.216 20.0246,39.716 63.5,13C 74.4416,7.6311 85.7749,3.79776 97.5,1.5 Z"/></g>
<g><path style="opacity:1" fill="#fefefe" d="M 99.5,5.5 C 539.833,5.33333 980.167,5.5 1420.5,6C 1460.57,11.7857 1487.74,33.619 1502,71.5C 1512.65,112.527 1502.49,147.361 1471.5,176C 1456.51,187.657 1439.51,194.657 1420.5,197C 980.167,197.667 539.833,197.667 99.5,197C 60.8873,190.95 34.3873,169.783 20,133.5C 6.23274,83.5633 21.0661,44.7299 64.5,17C 75.645,11.2179 87.3117,7.38454 99.5,5.5 Z"/></g>
<g><path style="opacity:1" fill="#ea4637" d="M 402.5,89.5 C 397.322,86.0776 392.322,82.411 387.5,78.5C 397.5,59.8303 413.167,51.6637 434.5,54C 443.327,55.3793 450.994,59.046 457.5,65C 453.5,69 449.5,73 445.5,77C 441.408,75.137 437.074,73.4703 432.5,72C 418.107,70.3616 408.107,76.1949 402.5,89.5 Z"/></g>
<g><path style="opacity:1" fill="#4d5154" d="M 982.5,60.5 C 985.22,62.9173 987.22,65.9173 988.5,69.5C 987.672,70.4147 986.672,71.0814 985.5,71.5C 983.58,68.6612 981.913,65.6612 980.5,62.5C 981.243,61.8182 981.909,61.1515 982.5,60.5 Z"/></g>
<g><path style="opacity:1" fill="#494c4f" d="M 970.5,62.5 C 971.873,62.3433 973.207,62.51 974.5,63C 975.961,65.4206 977.294,67.9206 978.5,70.5C 977.277,71.6139 975.944,71.7805 974.5,71C 972.754,68.3413 971.42,65.508 970.5,62.5 Z"/></g>
<g><path style="opacity:1" fill="#434649" d="M 945.5,65.5 C 947.5,65.8333 949.5,66.1667 951.5,66.5C 951.414,68.677 950.747,70.677 949.5,72.5C 960.48,73.4988 971.48,73.8321 982.5,73.5C 980.021,103.312 964.021,120.645 934.5,125.5C 933.862,123.54 933.862,121.707 934.5,120C 958.434,116.233 972.1,102.4 975.5,78.5C 965.828,78.3335 956.161,78.5002 946.5,79C 940.645,87.6889 933.311,94.8556 924.5,100.5C 923.618,99.2402 922.618,98.0736 921.5,97C 933.024,89.0877 941.024,78.5877 945.5,65.5 Z"/></g>
<g><path style="opacity:1" fill="#45494c" d="M 1029.5,124.5 C 1029.83,113.147 1029.5,101.814 1028.5,90.5C 1027.89,90.6236 1027.56,90.9569 1027.5,91.5C 1017.53,96.1558 1007.2,99.8224 996.5,102.5C 996.146,100.459 996.146,98.6255 996.5,97C 1017.99,92.5999 1035.66,82.0999 1049.5,65.5C 1051.17,66.3333 1052.83,67.1667 1054.5,68C 1049.31,74.6862 1043.31,80.5195 1036.5,85.5C 1035.5,98.4829 1035.17,111.483 1035.5,124.5C 1033.5,124.5 1031.5,124.5 1029.5,124.5 Z"/></g>
<g><path style="opacity:1" fill="#424548" d="M 536.5,70.5 C 546.073,69.1399 554.407,71.6399 561.5,78C 559.983,79.6851 558.316,81.1851 556.5,82.5C 543.479,73.958 532.979,76.2913 525,89.5C 522.184,106.671 529.351,115.171 546.5,115C 554.426,113.908 558.759,109.408 559.5,101.5C 553.833,101.5 548.167,101.5 542.5,101.5C 542.5,99.1667 542.5,96.8333 542.5,94.5C 550.833,94.5 559.167,94.5 567.5,94.5C 567.408,115.088 557.074,124.255 536.5,122C 517.199,113.9 512.033,100.4 521,81.5C 525.162,76.1903 530.329,72.5236 536.5,70.5 Z"/></g>
<g><path style="opacity:1" fill="#45484b" d="M 1073.5,69.5 C 1082.41,72.9558 1090.75,77.4558 1098.5,83C 1097.33,84.1667 1096.17,85.3333 1095,86.5C 1087.21,81.6928 1079.38,77.0261 1071.5,72.5C 1072.19,71.4822 1072.86,70.4822 1073.5,69.5 Z"/></g>
<g><path style="opacity:1" fill="#3f4346" d="M 705.5,71.5 C 707.833,71.5 710.167,71.5 712.5,71.5C 712.5,88.1667 712.5,104.833 712.5,121.5C 710.167,121.5 707.833,121.5 705.5,121.5C 705.5,104.833 705.5,88.1667 705.5,71.5 Z"/></g>
<g><path style="opacity:1" fill="#404447" d="M 781.5,72.5 C 801.167,72.5 820.833,72.5 840.5,72.5C 840.5,74.1667 840.5,75.8333 840.5,77.5C 834.491,77.3338 828.491,77.5005 822.5,78C 815.282,82.2182 809.782,88.0515 806,95.5C 803.66,108.161 808.827,115.661 821.5,118C 825.821,118.499 830.154,118.666 834.5,118.5C 834.5,120.167 834.5,121.833 834.5,123.5C 823.751,124.897 814.084,122.397 805.5,116C 798.7,106.077 798.867,96.2436 806,86.5C 808.833,83.6667 811.667,80.8333 814.5,78C 803.505,77.5002 792.505,77.3335 781.5,77.5C 781.5,75.8333 781.5,74.1667 781.5,72.5 Z"/></g>
<g><path style="opacity:1" fill="#3c4043" d="M 856.5,72.5 C 874.5,72.5 892.5,72.5 910.5,72.5C 910.5,89.1667 910.5,105.833 910.5,122.5C 892.5,122.5 874.5,122.5 856.5,122.5C 856.5,105.833 856.5,89.1667 856.5,72.5 Z"/></g>
<g><path style="opacity:1" fill="#fbfbfb" d="M 861.5,77.5 C 876.167,77.5 890.833,77.5 905.5,77.5C 905.5,90.8333 905.5,104.167 905.5,117.5C 890.833,117.5 876.167,117.5 861.5,117.5C 861.5,104.167 861.5,90.8333 861.5,77.5 Z"/></g>
<g><path style="opacity:1" fill="#fabd11" d="M 387.5,78.5 C 392.322,82.411 397.322,86.0776 402.5,89.5C 399.989,95.4557 399.989,101.456 402.5,107.5C 397.238,110.756 392.238,114.422 387.5,118.5C 380.925,105.143 380.925,91.8093 387.5,78.5 Z"/></g>
<g><path style="opacity:1" fill="#4f5355" d="M 835.5,80.5 C 838.566,82.4236 840.566,85.257 841.5,89C 840.991,90.1685 840.158,91.0019 839,91.5C 837.167,88.5 835.333,85.5 833.5,82.5C 834.243,81.8182 834.909,81.1515 835.5,80.5 Z"/></g>
<g><path style="opacity:1" fill="#4e5255" d="M 825.5,82.5 C 826.496,82.4142 827.329,82.7476 828,83.5C 829.303,85.9398 830.47,88.4398 831.5,91C 830.991,92.1685 830.158,93.0019 829,93.5C 827.167,90.5 825.333,87.5 823.5,84.5C 824.243,83.8182 824.909,83.1515 825.5,82.5 Z"/></g>
<g><path style="opacity:1" fill="#414548" d="M 586.5,84.5 C 603.158,83.99 610.658,91.99 609,108.5C 605.058,119.56 597.224,124.06 585.5,122C 573.466,115.748 569.966,106.248 575,93.5C 578.183,89.4622 582.016,86.4622 586.5,84.5 Z"/></g>
<g><path style="opacity:1" fill="#424649" d="M 630.5,84.5 C 645.523,84.3572 653.023,91.6906 653,106.5C 648.55,121.306 639.05,125.806 624.5,120C 616.458,113.09 614.291,104.59 618,94.5C 620.887,89.4341 625.054,86.1008 630.5,84.5 Z"/></g>
<g><path style="opacity:1" fill="#43474a" d="M 672.5,84.5 C 678.694,84.0004 683.861,86.0004 688,90.5C 688.494,88.8659 688.66,87.1992 688.5,85.5C 690.833,85.5 693.167,85.5 695.5,85.5C 695.667,98.1711 695.5,110.838 695,123.5C 692.992,133.182 686.992,137.849 677,137.5C 669.979,137.637 664.813,134.637 661.5,128.5C 662.67,126.745 664.337,125.745 666.5,125.5C 669.28,127.103 671.946,128.937 674.5,131C 684.991,131.676 689.324,126.843 687.5,116.5C 680.595,122.543 673.261,123.043 665.5,118C 656.902,106.999 657.568,96.6661 667.5,87C 669.315,86.2432 670.981,85.4098 672.5,84.5 Z"/></g>
<g><path style="opacity:1" fill="#424649" d="M 734.5,84.5 C 748.988,83.9873 756.321,90.9873 756.5,105.5C 747.167,105.5 737.833,105.5 728.5,105.5C 730.377,114.176 735.711,117.342 744.5,115C 746.585,113.959 748.252,112.459 749.5,110.5C 755.783,112.528 756.117,115.361 750.5,119C 738.069,125.632 728.569,122.799 722,110.5C 718.98,98.2104 723.146,89.5438 734.5,84.5 Z"/></g>
<g><path style="opacity:1" fill="#43474a" d="M 1123.5,88.5 C 1127.87,88.3306 1129.03,89.9972 1127,93.5C 1113.28,111.951 1094.78,121.951 1071.5,123.5C 1071.71,121.856 1071.38,120.356 1070.5,119C 1089.67,117.162 1105.84,109.328 1119,95.5C 1120.72,93.2833 1122.22,90.95 1123.5,88.5 Z"/></g>
<g><path style="opacity:1" fill="#4385f3" d="M 456.5,132.5 C 452.46,128.458 448.127,124.791 443.5,121.5C 447.422,117.999 450.089,113.666 451.5,108.5C 443.528,107.502 435.528,107.169 427.5,107.5C 427.5,102.167 427.5,96.8333 427.5,91.5C 441.833,91.5 456.167,91.5 470.5,91.5C 471.763,104.533 468.929,116.533 462,127.5C 460.25,129.424 458.417,131.091 456.5,132.5 Z"/></g>
<g><path style="opacity:1" fill="#f9f9f9" d="M 673.5,91.5 C 684.339,90.8373 689.172,95.8373 688,106.5C 685.37,114.064 680.203,116.564 672.5,114C 667.741,109.509 666.241,104.009 668,97.5C 669.36,94.9774 671.193,92.9774 673.5,91.5 Z"/></g>
<g><path style="opacity:1" fill="#f8f8f8" d="M 734.5,91.5 C 738.308,91.1632 741.974,91.6632 745.5,93C 747.451,94.7342 748.451,96.9009 748.5,99.5C 741.8,99.83 735.134,99.4967 728.5,98.5C 729.833,95.5067 731.833,93.1734 734.5,91.5 Z"/></g>
<g><path style="opacity:1" fill="#aaacad" d="M 1027.5,91.5 C 1027.56,90.9569 1027.89,90.6236 1028.5,90.5C 1029.5,101.814 1029.83,113.147 1029.5,124.5C 1028.83,113.5 1028.17,102.5 1027.5,91.5 Z"/></g>
<g><path style="opacity:1" fill="#f8f8f8" d="M 587.5,91.5 C 598.865,91.0284 603.699,96.3618 602,107.5C 599.166,114.666 593.999,117.166 586.5,115C 576.857,106.686 577.191,98.8525 587.5,91.5 Z"/></g>
<g><path style="opacity:1" fill="#fafafb" d="M 631.5,91.5 C 645.17,92.8284 649.003,99.8284 643,112.5C 638.449,115.756 633.616,116.256 628.5,114C 623.912,109.811 622.412,104.645 624,98.5C 625.742,95.2543 628.242,92.921 631.5,91.5 Z"/></g>
<g><path style="opacity:1" fill="#38a955" d="M 402.5,107.5 C 411.54,125.292 425.207,129.959 443.5,121.5C 448.127,124.791 452.46,128.458 456.5,132.5C 449.921,138.95 441.921,142.45 432.5,143C 411.954,144.732 396.954,136.565 387.5,118.5C 392.238,114.422 397.238,110.756 402.5,107.5 Z"/></g>
</svg>
